<!DOCTYPE svg PUBLIC "-//W3C//DTD SVG 20010904//EN" "http://www.w3.org/TR/2001/REC-SVG-20010904/DTD/svg10.dtd">
<svg version="1.0" xmlns="http://www.w3.org/2000/svg" width="420px" height="528px" viewBox="0 0 4200 5280" preserveAspectRatio="xMidYMid meet">
<g id="layer101" fill="#fc0108" stroke="none">
 <path d="M1980 5230 c0 -5 -9 -10 -20 -10 -11 0 -20 -4 -20 -9 0 -5 -13 -11 -30 -14 -18 -4 -30 -13 -30 -22 0 -8 -7 -15 -15 -15 -8 0 -15 -4 -15 -9 0 -5 -9 -11 -20 -14 -11 -3 -24 -17 -30 -31 -5 -14 -17 -26 -26 -26 -9 0 -26 -11 -38 -24 -11 -13 -30 -26 -41 -28 -11 -2 -24 -13 -30 -26 -5 -12 -16 -22 -23 -22 -18 0 -42 -25 -42 -44 0 -10 -9 -16 -24 -16 -16 0 -27 -7 -31 -19 -3 -11 -14 -23 -24 -26 -11 -3 -21 -14 -24 -24 -2 -10 -17 -25 -33 -32 -16 -8 -33 -24 -39 -37 -6 -13 -19 -22 -32 -22 -13 0 -24 -8 -28 -19 -3 -11 -14 -22 -23 -25 -10 -3 -23 -19 -29 -36 -6 -16 -18 -30 -26 -30 -8 0 -17 -9 -20 -21 -3 -11 -14 -23 -24 -26 -10 -3 -36 -27 -58 -53 -22 -27 -44 -49 -50 -50 -5 0 -26 -21 -45 -46 -19 -24 -61 -69 -92 -100 -31 -31 -63 -69 -70 -85 -7 -16 -17 -29 -21 -29 -12 0 -37 -27 -37 -39 0 -5 -17 -30 -37 -54 -21 -25 -49 -60 -63 -78 -14 -18 -35 -43 -47 -55 -13 -13 -23 -29 -23 -36 0 -7 -18 -33 -40 -58 -22 -25 -40 -48 -40 -51 0 -3 -11 -19 -25 -35 -14 -16 -40 -58 -57 -94 -18 -35 -44 -78 -58 -95 -51 -60 -100 -148 -100 -179 0 -13 -7 -26 -15 -30 -8 -3 -15 -13 -15 -23 0 -10 -11 -36 -25 -58 -13 -22 -25 -48 -25 -57 0 -10 -3 -18 -7 -18 -10 0 -41 -74 -49 -117 -4 -19 -14 -35 -25 -38 -11 -4 -19 -16 -19 -28 0 -12 -12 -40 -25 -62 -14 -22 -25 -50 -25 -63 0 -29 -31 -155 -40 -162 -14 -11 -50 -144 -50 -188 0 -26 -9 -83 -20 -127 -11 -44 -20 -99 -20 -122 0 -24 -5 -43 -11 -43 -7 0 -9 -88 -6 -282 5 -298 26 -497 58 -535 25 -29 39 -71 39 -113 0 -22 4 -40 8 -40 4 0 19 -36 32 -80 13 -44 28 -80 32 -80 4 0 14 -16 23 -36 8 -20 26 -49 40 -66 14 -16 25 -34 25 -39 0 -6 11 -25 25 -43 14 -18 25 -37 25 -41 0 -4 11 -23 25 -41 14 -18 25 -37 25 -43 0 -6 5 -11 10 -11 6 0 10 -7 10 -16 0 -9 10 -27 22 -39 25 -24 71 -83 76 -96 2 -5 12 -9 23 -9 12 0 23 -10 29 -25 6 -15 17 -25 30 -25 11 0 20 -5 20 -12 0 -13 86 -98 100 -98 5 0 12 -9 15 -20 4 -11 20 -27 36 -36 17 -8 44 -29 61 -45 17 -16 37 -29 43 -29 7 0 15 -10 19 -22 3 -15 22 -30 51 -43 25 -11 45 -23 45 -28 0 -4 30 -22 68 -39 37 -17 69 -33 72 -37 3 -4 21 -13 40 -21 19 -7 40 -18 45 -24 27 -31 225 -106 278 -106 16 0 35 -7 43 -15 9 -8 25 -15 38 -15 12 0 27 -5 33 -11 7 -7 57 -14 115 -16 57 -3 123 -12 148 -20 28 -9 124 -19 249 -25 194 -10 206 -10 275 10 39 12 133 33 208 47 76 13 146 29 155 34 10 5 45 16 78 26 33 9 69 22 80 29 11 7 45 20 75 29 53 17 110 57 110 77 0 6 10 10 22 10 27 0 97 33 126 60 11 11 26 20 32 20 20 0 104 61 188 137 14 13 29 23 34 23 5 0 31 22 57 50 26 27 53 50 59 50 16 0 105 110 121 148 7 18 17 32 22 32 11 0 79 70 79 82 0 4 7 8 15 8 8 0 15 6 15 13 0 7 8 22 18 33 22 26 52 82 52 99 0 7 11 16 25 19 14 4 25 13 25 21 0 8 11 25 25 39 17 17 25 36 25 61 0 24 4 35 15 35 8 0 15 9 15 20 0 11 5 20 10 20 6 0 10 13 10 29 0 16 7 34 15 41 8 7 15 21 15 31 0 11 4 19 9 19 5 0 11 19 15 43 10 84 18 117 27 117 5 0 9 15 9 33 0 17 7 57 15 87 8 30 15 74 15 98 0 23 4 42 9 42 4 0 11 71 14 158 5 142 4 161 -14 195 -10 21 -19 55 -19 77 0 22 -4 40 -10 40 -5 0 -14 19 -20 43 -19 72 -21 77 -33 77 -16 0 -77 112 -77 140 0 12 -13 39 -30 60 -16 21 -30 44 -30 52 0 8 -11 25 -25 38 -14 13 -25 29 -25 35 0 6 -13 24 -30 40 -16 16 -30 37 -30 47 0 11 -7 18 -20 18 -11 0 -20 5 -20 12 0 15 -131 148 -147 148 -6 0 -15 9 -18 20 -3 11 -13 20 -21 20 -8 0 -33 18 -55 40 -22 22 -46 40 -53 40 -7 0 -23 11 -36 25 -13 14 -32 25 -42 25 -10 0 -21 7 -24 15 -4 8 -12 15 -20 15 -8 0 -14 5 -14 10 0 6 -7 10 -15 10 -8 0 -23 4 -33 9 -17 9 -51 24 -124 56 -20 8 -40 20 -43 25 -3 6 -19 10 -36 10 -16 0 -29 5 -29 10 0 6 -9 10 -20 10 -11 0 -20 7 -20 15 0 11 -12 15 -46 15 -27 0 -51 6 -60 15 -9 8 -33 15 -55 15 -21 0 -39 5 -39 10 0 6 -18 10 -40 10 -22 0 -40 5 -40 10 0 6 -33 10 -80 10 -47 0 -80 4 -80 10 0 6 -33 10 -80 10 -47 0 -80 4 -80 10 0 17 -186 11 -375 -12 -99 -12 -181 -25 -183 -30 -2 -4 -13 -8 -25 -8 -12 0 -31 -7 -41 -15 -11 -8 -29 -15 -41 -15 -12 0 -30 -7 -41 -15 -10 -8 -29 -15 -41 -15 -12 0 -23 -3 -25 -7 -1 -5 -25 -19 -53 -33 -27 -14 -59 -33 -70 -43 -11 -10 -37 -28 -57 -40 -21 -11 -38 -24 -38 -29 0 -4 -7 -8 -15 -8 -8 0 -15 -4 -15 -9 0 -5 -30 -40 -67 -78 -93 -94 -133 -140 -133 -153 0 -6 -11 -26 -25 -44 -14 -18 -25 -42 -25 -52 0 -11 -7 -29 -15 -41 -13 -18 -14 -49 -9 -193 5 -123 11 -176 21 -185 7 -8 13 -23 13 -35 0 -12 13 -39 30 -60 16 -21 30 -41 30 -46 0 -9 70 -102 102 -137 27 -28 72 -86 76 -98 2 -5 10 -9 18 -9 8 0 14 -4 14 -10 0 -5 5 -10 10 -10 6 0 24 -15 40 -32 31 -34 40 -78 16 -78 -7 0 -19 -7 -26 -15 -7 -9 -29 -15 -51 -15 -22 0 -39 -4 -39 -10 0 -5 -7 -10 -15 -10 -15 0 -56 -19 -65 -31 -3 -4 -37 -6 -76 -5 -55 1 -74 -3 -88 -16 -9 -10 -37 -26 -61 -37 -54 -24 -57 -42 -12 -85 18 -17 36 -39 40 -48 3 -10 11 -18 16 -18 5 0 13 -10 17 -22 12 -42 35 -58 81 -58 26 0 43 -5 43 -12 0 -14 402 -3 470 14 66 16 210 22 210 9 0 -6 16 -11 35 -11 24 0 45 -8 63 -25 15 -14 34 -25 42 -25 8 0 27 -11 42 -25 15 -14 32 -25 38 -25 6 0 23 -11 38 -25 15 -14 34 -25 44 -25 9 0 25 -11 36 -25 11 -14 28 -25 39 -25 10 0 24 -9 30 -19 7 -11 29 -22 55 -26 24 -4 48 -11 54 -16 7 -6 35 -12 64 -16 41 -5 56 -2 78 14 15 11 35 22 45 26 27 10 25 117 -3 135 -11 7 -29 32 -41 56 -11 25 -27 47 -35 50 -8 3 -14 17 -14 31 0 18 -5 25 -20 25 -13 0 -20 7 -20 18 0 21 -29 52 -48 52 -7 0 -12 7 -12 15 0 10 -10 15 -30 15 -25 0 -30 4 -30 24 0 17 -7 26 -25 30 -14 4 -25 12 -25 19 0 8 -11 24 -25 37 -14 13 -25 29 -25 36 0 7 -7 20 -17 29 -15 15 -16 43 -10 288 4 161 11 275 17 281 13 13 13 176 0 176 -5 0 -10 8 -10 18 0 27 -33 62 -58 62 -11 0 -23 4 -26 9 -6 9 -96 41 -115 41 -6 0 -29 -16 -51 -36 -29 -26 -40 -44 -40 -65 0 -16 -3 -29 -8 -29 -9 0 -32 -72 -32 -100 0 -11 -4 -20 -10 -20 -5 0 -10 -11 -10 -24 0 -35 -10 -56 -26 -56 -9 0 -14 -11 -14 -30 0 -16 -4 -30 -10 -30 -5 0 -10 -7 -10 -16 0 -20 -28 -43 -53 -44 -10 0 -32 13 -50 30 -18 16 -36 30 -40 30 -15 0 -52 49 -63 83 -4 9 -13 17 -20 17 -8 0 -14 9 -14 20 0 11 -4 20 -10 20 -5 0 -13 12 -16 28 -4 15 -13 34 -21 44 -25 28 -4 248 23 248 9 0 14 11 14 30 0 17 5 30 11 30 12 0 39 25 39 36 0 12 94 104 106 104 7 0 22 11 35 25 16 16 35 25 56 25 17 0 35 5 38 10 3 6 15 10 26 10 10 0 19 7 19 15 0 11 11 15 40 15 22 0 40 4 40 8 0 5 18 14 40 21 22 6 40 16 40 21 0 6 64 10 160 10 100 0 160 -4 160 -10 0 -5 18 -10 39 -10 22 0 43 -4 46 -10 3 -5 31 -10 61 -10 36 0 54 -4 54 -12 0 -17 46 -38 82 -38 16 0 31 -7 34 -15 4 -8 15 -15 25 -15 10 0 19 -4 19 -10 0 -5 8 -10 19 -10 10 0 24 -6 30 -13 6 -8 31 -22 56 -33 25 -10 45 -22 45 -26 0 -4 8 -8 19 -8 10 0 42 -23 70 -50 28 -27 53 -50 55 -50 3 0 102 -90 118 -107 37 -39 68 -83 68 -95 0 -8 11 -25 25 -38 14 -13 25 -30 25 -37 0 -8 11 -26 25 -41 14 -15 28 -36 31 -47 4 -11 17 -33 30 -48 16 -19 24 -41 24 -66 0 -20 8 -48 18 -61 23 -34 42 -89 42 -127 0 -17 10 -48 22 -69 19 -32 22 -55 26 -215 4 -168 4 -180 -17 -214 -11 -20 -21 -51 -21 -69 0 -18 -11 -56 -25 -84 -14 -29 -25 -67 -25 -86 0 -19 -5 -38 -10 -41 -6 -4 -34 -55 -61 -113 -28 -58 -56 -111 -63 -117 -7 -5 -24 -28 -39 -51 -15 -22 -36 -50 -47 -62 -11 -12 -20 -25 -20 -29 0 -5 -8 -13 -19 -20 -10 -6 -21 -25 -24 -42 -5 -22 -12 -31 -27 -31 -11 0 -20 -4 -20 -10 0 -5 -11 -12 -24 -16 -13 -3 -29 -16 -35 -28 -7 -12 -24 -27 -39 -34 -48 -21 -163 -87 -170 -98 -4 -6 -22 -16 -39 -23 -18 -8 -33 -17 -33 -22 0 -5 -11 -9 -24 -9 -13 0 -35 -9 -49 -20 -14 -11 -30 -20 -36 -20 -6 0 -11 -4 -11 -10 0 -5 -9 -10 -19 -10 -11 0 -23 -4 -26 -10 -3 -5 -24 -10 -45 -10 -21 0 -42 -4 -45 -10 -3 -5 -22 -10 -41 -10 -20 0 -45 -5 -57 -11 -12 -7 -117 -16 -251 -21 -155 -7 -233 -14 -238 -21 -5 -8 -8 -9 -8 -1 0 6 -26 14 -57 18 -32 4 -76 9 -98 12 -91 11 -394 118 -410 144 -3 6 -17 10 -31 10 -13 0 -24 4 -24 8 0 5 -18 17 -40 28 -22 10 -40 22 -40 27 0 4 -9 7 -20 7 -11 0 -20 5 -20 10 0 6 -6 10 -13 10 -7 0 -20 9 -30 20 -9 11 -24 20 -32 20 -8 0 -15 5 -15 10 0 6 -7 10 -15 10 -8 0 -15 5 -15 10 0 6 -16 10 -35 10 -19 0 -35 3 -35 8 0 4 -18 27 -40 51 -22 24 -40 53 -40 65 0 14 -24 44 -65 83 -36 34 -65 68 -65 77 0 8 -20 50 -45 92 -25 41 -45 79 -45 84 0 5 -4 10 -9 12 -15 5 -88 150 -96 188 -3 19 -13 49 -20 65 -7 17 -25 93 -40 170 -14 77 -28 151 -31 165 -10 43 -6 262 5 330 6 36 11 101 11 144 0 75 23 190 41 210 5 6 9 22 9 36 0 30 52 157 104 252 20 37 36 76 36 87 0 21 81 129 109 145 22 13 111 107 111 118 0 4 6 8 13 8 6 0 21 14 32 30 11 16 24 30 28 30 7 0 25 14 88 73 17 15 37 27 45 27 8 0 27 11 42 25 15 14 33 25 40 25 7 0 15 7 18 15 4 8 12 15 19 15 7 0 18 7 25 15 7 8 23 15 35 15 12 0 28 7 35 15 7 8 21 15 30 15 10 0 20 3 22 8 2 4 36 17 76 30 39 13 72 27 72 33 0 5 18 9 39 9 22 0 41 4 43 10 2 5 37 15 78 21 41 7 77 15 80 19 3 4 144 10 314 12 239 4 332 2 410 -9 56 -8 134 -17 173 -21 40 -4 78 -13 85 -20 6 -6 22 -12 35 -12 13 0 23 -4 23 -10 0 -5 25 -10 55 -10 30 0 55 -4 55 -10 0 -5 11 -10 24 -10 14 0 28 -4 31 -10 3 -5 23 -10 44 -10 22 0 44 -6 51 -15 7 -8 20 -15 30 -15 10 0 20 -7 24 -15 3 -10 19 -15 46 -15 22 0 40 -3 40 -7 0 -13 52 -33 82 -33 16 0 31 -7 34 -15 4 -8 12 -15 19 -15 7 0 18 -7 25 -15 7 -8 23 -15 36 -15 13 0 24 -4 24 -10 0 -5 7 -10 15 -10 8 0 15 -4 15 -10 0 -5 13 -10 28 -10 21 0 32 -7 40 -25 6 -14 20 -25 29 -25 10 0 28 -11 41 -25 13 -13 37 -31 53 -40 16 -8 42 -22 58 -30 17 -9 33 -25 36 -35 4 -14 15 -20 36 -20 16 0 29 -4 29 -10 0 -5 9 -10 20 -10 11 0 20 5 20 10 0 6 7 10 15 10 8 0 15 9 15 20 0 11 -7 23 -15 26 -9 4 -15 19 -15 40 0 19 -5 34 -11 34 -18 0 -48 44 -49 71 0 14 -11 36 -25 49 -14 13 -25 31 -25 40 0 9 -11 30 -24 45 -14 16 -27 39 -31 52 -7 30 -83 143 -96 143 -5 0 -14 11 -19 25 -13 35 -62 108 -82 123 -10 7 -18 20 -18 28 0 9 -13 27 -30 41 -16 13 -30 31 -30 38 0 8 -8 20 -18 27 -9 7 -23 26 -30 41 -7 16 -21 31 -32 34 -11 3 -20 9 -20 14 0 7 -81 107 -137 169 -13 14 -23 28 -23 32 0 11 -141 148 -151 148 -5 0 -9 4 -9 9 0 12 -164 151 -179 151 -6 0 -11 9 -11 20 0 11 -5 20 -11 20 -13 0 -149 138 -149 151 0 5 -5 9 -10 9 -6 0 -22 11 -36 25 -13 13 -43 35 -67 49 -23 14 -49 34 -57 46 -8 11 -25 20 -37 20 -13 0 -23 6 -23 13 0 12 -34 47 -46 47 -4 0 -14 8 -23 19 -9 10 -27 22 -41 26 -14 4 -38 18 -53 31 -16 13 -34 24 -41 24 -6 0 -18 9 -26 20 -8 11 -22 20 -32 20 -19 0 -58 33 -58 50 0 6 -7 10 -15 10 -8 0 -15 5 -15 10 0 6 -7 10 -15 10 -8 0 -15 5 -15 10 0 6 -22 10 -50 10 -27 0 -50 -4 -50 -10z"/>
 </g>

</svg>